<svg width="122" height="32" viewBox="0 0 122 32" fill="none" xmlns="http://www.w3.org/2000/svg">
<g clip-path="url(#clip0)">
<path d="M44.0143 23.3046V8.21533H54.1005V10.3774H46.6831V14.5517H53.6554V16.7138H46.6831V21.1425H54.1005V23.3046H44.0143Z" fill="#161E2E"/>
<path d="M66.3897 16.7344V23.3026H63.7415V16.8616C63.7415 16.0144 63.5795 15.3969 63.2554 15.0072C62.9292 14.6195 62.4287 14.4246 61.7497 14.4246C60.9436 14.4246 60.2933 14.6831 59.801 15.198C59.3067 15.7149 59.0585 16.3959 59.0585 17.2431V23.3026H56.4308V15.6308C56.4308 14.5005 56.3733 13.4913 56.2605 12.601H58.7405L58.9313 14.361C59.2985 13.7108 59.7969 13.2103 60.4246 12.8554C61.0523 12.5026 61.762 12.3262 62.5538 12.3262C65.1118 12.3262 66.3897 13.7969 66.3897 16.7344Z" fill="#161E2E"/>
<path d="M79.4441 12.603V23.3045H76.8369V21.5876C76.5128 22.1804 76.0451 22.644 75.4379 22.9763C74.8308 23.3086 74.1374 23.4748 73.362 23.4748C72.4308 23.4748 71.6041 23.2491 70.8841 22.7958C70.1641 22.3445 69.6061 21.7004 69.2102 20.8676C68.8144 20.0348 68.6174 19.0666 68.6174 17.965C68.6174 16.8635 68.8185 15.885 69.2205 15.0297C69.6226 14.1743 70.1846 13.5117 70.9046 13.0379C71.6246 12.564 72.4451 12.3281 73.362 12.3281C74.1395 12.3281 74.8308 12.4943 75.4379 12.8266C76.0451 13.1589 76.5107 13.6225 76.8369 14.2153V12.605H79.4441V12.603ZM76.1169 20.4861C76.5969 19.8789 76.8369 19.0235 76.8369 17.922C76.8369 16.7917 76.5969 15.924 76.1169 15.3168C75.6369 14.7097 74.9518 14.4061 74.0615 14.4061C73.1856 14.4061 72.5046 14.7199 72.0164 15.3497C71.5302 15.9794 71.2861 16.8512 71.2861 17.9671C71.2861 19.0686 71.5302 19.9158 72.0164 20.5107C72.5046 21.1035 73.1918 21.4009 74.082 21.4009C74.9579 21.3968 75.6369 21.0933 76.1169 20.4861Z" fill="#161E2E"/>
<path d="M90.8759 13.0358C91.5898 13.5097 92.1477 14.1722 92.5498 15.0276C92.9518 15.883 93.1528 16.8615 93.1528 17.963C93.1528 19.0646 92.9559 20.0328 92.56 20.8656C92.1641 21.6984 91.6103 22.3425 90.8964 22.7938C90.1826 23.2451 89.36 23.4728 88.4267 23.4728C87.6493 23.4728 86.958 23.3066 86.3508 22.9743C85.7436 22.642 85.278 22.1804 84.9518 21.5856V27.8789H82.3241V15.6328C82.3241 14.5025 82.2667 13.4933 82.1539 12.603H84.6339L84.8451 14.4471C85.1282 13.7845 85.5857 13.2635 86.2236 12.8902C86.8595 12.5169 87.5939 12.3281 88.4267 12.3281C89.3477 12.3261 90.1621 12.564 90.8759 13.0358ZM89.7641 20.5066C90.2441 19.9138 90.4841 19.0666 90.4841 17.963C90.4841 16.8471 90.2441 15.9753 89.7641 15.3456C89.2841 14.7179 88.6051 14.402 87.7293 14.402C86.8246 14.402 86.1334 14.7056 85.6534 15.3128C85.1734 15.9199 84.9334 16.7897 84.9334 17.9179C84.9334 19.0338 85.1734 19.8933 85.6534 20.4922C86.1334 21.0933 86.8185 21.3928 87.7087 21.3928C88.599 21.3969 89.2841 21.0994 89.7641 20.5066Z" fill="#161E2E"/>
<path d="M98.7692 14.5948V19.3846C98.7692 20.642 99.3559 21.2697 100.527 21.2697C100.851 21.2697 101.206 21.2143 101.588 21.0995V23.1979C101.122 23.3682 100.556 23.4523 99.8933 23.4523C98.6789 23.4523 97.7456 23.1138 97.0954 22.4348C96.4451 21.7559 96.121 20.7815 96.121 19.5097V14.5948H94.0656V12.603H96.121V9.99792L98.7692 9.10767V12.6051H101.608V14.5969H98.7692V14.5948Z" fill="#161E2E"/>
<path d="M112.798 18.0901H105.424C105.479 19.2347 105.766 20.0778 106.281 20.6214C106.796 21.165 107.563 21.4378 108.581 21.4378C109.752 21.4378 110.841 21.0563 111.844 20.2932L112.607 22.1147C112.098 22.525 111.473 22.8532 110.732 23.0994C109.992 23.3455 109.239 23.4706 108.476 23.4706C106.724 23.4706 105.346 22.9763 104.343 21.9876C103.339 20.9988 102.837 19.6429 102.837 17.9178C102.837 16.8306 103.056 15.8624 103.493 15.0153C103.93 14.1681 104.546 13.5076 105.337 13.0337C106.129 12.5599 107.026 12.324 108.029 12.324C109.497 12.324 110.658 12.7999 111.514 13.7537C112.369 14.7076 112.796 16.0183 112.796 17.684V18.0901H112.798ZM106.367 14.8594C105.922 15.2758 105.637 15.8809 105.51 16.6706H110.49C110.406 15.8665 110.162 15.2573 109.76 14.8491C109.358 14.4388 108.802 14.2358 108.096 14.2358C107.387 14.2337 106.812 14.4429 106.367 14.8594Z" fill="#161E2E"/>
<path d="M121.867 12.5169L121.846 14.9333C121.395 14.7487 120.927 14.6585 120.447 14.6585C119.543 14.6585 118.853 14.921 118.382 15.4421C117.908 15.9651 117.672 16.6564 117.672 17.518V23.3026H115.044V15.6308C115.044 14.5005 114.987 13.4913 114.874 12.601H117.354L117.565 14.4882C117.834 13.7969 118.256 13.2657 118.837 12.8985C119.415 12.5313 120.074 12.3467 120.808 12.3467C121.216 12.3487 121.571 12.4041 121.867 12.5169Z" fill="#161E2E"/>
<path d="M14.0513 16.6994V22.3548L1.80103 19.0748V13.4194L14.0513 16.6994Z" fill="white"/>
<path d="M14.0513 24.2422V29.8935L1.80103 26.6114V20.9561L14.0513 24.2422Z" fill="white"/>
<path d="M25.5159 4.68912L14.9621 7.51989L4.4082 4.68912L14.9621 1.8645L25.5159 4.68912Z" fill="white"/>
<path d="M14.0513 9.15901V14.8123L1.80103 11.5323V5.87695L14.0513 9.15901Z" fill="white"/>
<path d="M29.9405 5.38867V26.123L15.8728 29.8933V9.15893L29.9405 5.38867Z" fill="#28CDCD"/>
<path d="M29.9405 5.38857V4.68908C29.9405 4.27677 29.6636 3.9178 29.2677 3.81113L15.1959 0.0388259C15.042 -0.00219977 14.88 -0.00219977 14.7261 0.0388259L0.654327 3.81113C0.256378 3.91575 -0.0184937 4.27677 -0.0184937 4.68908V27.3106C-0.0184937 27.7229 0.258429 28.0819 0.654327 28.1886L14.7261 31.9609C14.802 31.9793 14.882 31.9896 14.962 31.9896C15.0379 31.9896 15.1179 31.9793 15.1959 31.9609L29.2677 28.1886C29.6636 28.084 29.9405 27.7229 29.9405 27.3106V26.1229L15.8728 29.8911V9.15883L29.9405 5.38857ZM14.0513 29.8932L1.80099 26.6111V20.9557L14.0513 24.2399V29.8932ZM14.0513 22.3547L1.80099 19.0727V13.4193L14.0513 16.6993V22.3547ZM14.0513 14.8122L1.80099 11.5322V5.87677L14.0513 9.15883V14.8122ZM14.962 7.51985L4.40817 4.68908L14.962 1.86447L25.5159 4.69113L14.962 7.51985Z" fill="#161E2E"/>
<path d="M29.9405 12.9311V11.0439L22.9066 12.9291V14.8163L29.9405 12.9311Z" fill="#161E2E"/>
<path d="M29.9405 20.4676V18.5825L22.9066 20.4676V22.3528L29.9405 20.4676Z" fill="#161E2E"/>
</g>
<defs>
<clipPath id="clip0">
<rect width="121.846" height="32" fill="white"/>
</clipPath>
</defs>
</svg>
